<?xml version="1.0" encoding="utf-8"?>
<!DOCTYPE svg PUBLIC "-//W3C//DTD SVG 1.1//EN" "http://www.w3.org/Graphics/SVG/1.1/DTD/svg11.dtd">
<svg xmlns="http://www.w3.org/2000/svg" xmlns:xlink="http://www.w3.org/1999/xlink" version="1.1" baseProfile="full" width="278.96" height="61.2711" viewBox="0 0 278.96 61.27" enable-background="new 0 0 278.96 61.27" xml:space="preserve">
	<g>
		<g>
			<path fill="#FFFFFF" fill-opacity="1" stroke-width="0.2" stroke-linejoin="round" d="M 107.18,22.2755C 109.74,22.2755 112.026,22.6922 114.04,23.5255C 116.053,24.3589 117.747,25.4988 119.12,26.9455C 120.493,28.3922 121.545,30.0905 122.275,32.0405C 123.005,33.9905 123.37,36.0689 123.37,38.2755C 123.37,40.6689 122.937,42.8605 122.07,44.8505C 121.203,46.8405 120.026,48.5388 118.54,49.9455C 117.053,51.3522 115.303,52.4205 113.29,53.1505C 111.276,53.8805 109.116,54.1721 106.81,54.0255C 106.076,54.0055 105.283,53.9072 104.43,53.7305C 103.576,53.5539 102.718,53.2722 101.855,52.8855C 100.991,52.4988 100.148,51.9988 99.3247,51.3855C 98.5015,50.7722 97.7563,50.0255 97.0898,49.1455L 97.0898,53.3055L 91.4297,53.3055L 91.4297,17.8955C 91.4297,17.8555 91.4297,17.6488 91.4297,17.2755C 91.4297,16.9022 91.4199,16.4339 91.3999,15.8705C 91.3799,15.3072 91.353,14.6822 91.3198,13.9955C 91.2866,13.3089 91.2397,12.6205 91.1797,11.9305C 91.1199,11.2405 91.0366,10.5838 90.9297,9.96048C 90.8232,9.33719 90.6997,8.80551 90.5598,8.36551L 97.0898,8.36551L 97.0898,27.1155C 97.7363,26.3022 98.4915,25.5938 99.3547,24.9905C 100.218,24.3872 101.108,23.8822 102.025,23.4755C 102.941,23.0689 103.848,22.7672 104.745,22.5705C 105.642,22.3738 106.453,22.2755 107.18,22.2755 Z M 106.99,49.0255C 108.557,49.0255 110.006,48.7905 111.34,48.3205C 112.673,47.8505 113.835,47.1621 114.825,46.2555C 115.815,45.3488 116.59,44.2289 117.15,42.8955C 117.71,41.5622 117.99,40.0222 117.99,38.2755C 117.99,36.7088 117.745,35.2538 117.255,33.9105C 116.765,32.5672 116.073,31.4122 115.18,30.4455C 114.287,29.4789 113.193,28.7188 111.9,28.1655C 110.606,27.6122 109.17,27.3355 107.59,27.3355C 106.256,27.3355 104.96,27.5955 103.7,28.1155C 102.44,28.6355 101.32,29.3338 100.34,30.2105C 99.3599,31.0872 98.5732,32.1089 97.9797,33.2755C 97.3865,34.4422 97.0898,35.6588 97.0898,36.9255L 97.0898,39.7455C 97.0898,41.0788 97.3865,42.3122 97.9797,43.4455C 98.5732,44.5788 99.3381,45.5572 100.275,46.3805C 101.211,47.2038 102.268,47.8505 103.445,48.3205C 104.622,48.7905 105.803,49.0255 106.99,49.0255 Z "/>
			<path fill="#FFFFFF" fill-opacity="1" stroke-width="0.2" stroke-linejoin="round" d="M 149.24,22.2155L 155.83,22.2155C 155.476,23.7155 155.268,25.2305 155.205,26.7605C 155.141,28.2905 155.11,29.7122 155.11,31.0255L 155.11,41.1455C 155.11,43.1655 154.725,44.9988 153.955,46.6455C 153.185,48.2921 152.17,49.6989 150.91,50.8655C 149.65,52.0322 148.218,52.9339 146.615,53.5705C 145.011,54.2072 143.366,54.5255 141.68,54.5255C 139.78,54.5255 138.023,54.2072 136.41,53.5705C 134.796,52.9339 133.406,52.0639 132.24,50.9605C 131.073,49.8572 130.156,48.5455 129.49,47.0255C 128.823,45.5055 128.49,43.8689 128.49,42.1155L 128.49,31.0855C 128.49,30.6455 128.485,30.0622 128.475,29.3355C 128.465,28.6089 128.438,27.8289 128.395,26.9955C 128.351,26.1622 128.293,25.3239 128.22,24.4805C 128.146,23.6372 128.05,22.8822 127.93,22.2155L 134.21,22.2155L 134.21,41.3355C 134.21,42.5622 134.36,43.6755 134.66,44.6755C 134.96,45.6755 135.418,46.5255 136.035,47.2255C 136.651,47.9255 137.428,48.4622 138.365,48.8355C 139.301,49.2088 140.406,49.3955 141.68,49.3955C 142.846,49.3955 143.898,49.2038 144.835,48.8205C 145.771,48.4372 146.568,47.8905 147.225,47.1805C 147.881,46.4705 148.381,45.6255 148.725,44.6455C 149.068,43.6655 149.24,42.5822 149.24,41.3955L 149.24,22.2155 Z "/>
			<path fill="#FFFFFF" fill-opacity="1" stroke-width="0.2" stroke-linejoin="round" d="M 176.3,22.2755C 178.86,22.2755 181.146,22.6922 183.16,23.5255C 185.173,24.3589 186.866,25.4988 188.24,26.9455C 189.613,28.3922 190.665,30.0905 191.395,32.0405C 192.125,33.9905 192.49,36.0689 192.49,38.2755C 192.49,40.6689 192.056,42.8605 191.19,44.8505C 190.323,46.8405 189.146,48.5388 187.66,49.9455C 186.173,51.3522 184.423,52.4205 182.41,53.1505C 180.396,53.8805 178.236,54.1721 175.93,54.0255C 175.196,54.0055 174.403,53.9072 173.55,53.7305C 172.696,53.5539 171.838,53.2722 170.975,52.8855C 170.111,52.4988 169.268,51.9988 168.445,51.3855C 167.622,50.7722 166.876,50.0255 166.21,49.1455L 166.21,53.3055L 160.55,53.3055L 160.55,17.8955C 160.55,17.8555 160.55,17.6488 160.55,17.2755C 160.55,16.9022 160.54,16.4339 160.52,15.8705C 160.5,15.3072 160.473,14.6822 160.44,13.9955C 160.406,13.3089 160.36,12.6205 160.3,11.9305C 160.24,11.2405 160.156,10.5838 160.05,9.96048C 159.943,9.33719 159.82,8.80551 159.68,8.36551L 166.21,8.36551L 166.21,27.1155C 166.856,26.3022 167.611,25.5938 168.475,24.9905C 169.338,24.3872 170.228,23.8822 171.145,23.4755C 172.062,23.0689 172.968,22.7672 173.865,22.5705C 174.761,22.3738 175.573,22.2755 176.3,22.2755 Z M 176.11,49.0255C 177.677,49.0255 179.126,48.7905 180.46,48.3205C 181.793,47.8505 182.955,47.1621 183.945,46.2555C 184.935,45.3488 185.71,44.2289 186.27,42.8955C 186.83,41.5622 187.11,40.0222 187.11,38.2755C 187.11,36.7088 186.865,35.2538 186.375,33.9105C 185.885,32.5672 185.193,31.4122 184.3,30.4455C 183.406,29.4789 182.313,28.7188 181.02,28.1655C 179.727,27.6122 178.29,27.3355 176.71,27.3355C 175.376,27.3355 174.08,27.5955 172.82,28.1155C 171.56,28.6355 170.44,29.3338 169.46,30.2105C 168.48,31.0872 167.693,32.1089 167.1,33.2755C 166.506,34.4422 166.21,35.6588 166.21,36.9255L 166.21,39.7455C 166.21,41.0788 166.506,42.3122 167.1,43.4455C 167.693,44.5788 168.458,45.5572 169.395,46.3805C 170.332,47.2038 171.388,47.8505 172.565,48.3205C 173.741,48.7905 174.923,49.0255 176.11,49.0255 Z "/>
			<path fill="#FFFFFF" fill-opacity="1" stroke-width="0.2" stroke-linejoin="round" d="M 213.42,22.2755C 215.979,22.2755 218.266,22.6922 220.28,23.5255C 222.293,24.3589 223.986,25.4988 225.36,26.9455C 226.733,28.3922 227.785,30.0905 228.515,32.0405C 229.245,33.9905 229.61,36.0689 229.61,38.2755C 229.61,40.6689 229.177,42.8605 228.31,44.8505C 227.443,46.8405 226.266,48.5388 224.78,49.9455C 223.293,51.3522 221.543,52.4205 219.53,53.1505C 217.516,53.8805 215.356,54.1721 213.05,54.0255C 212.316,54.0055 211.523,53.9072 210.67,53.7305C 209.816,53.5539 208.958,53.2722 208.095,52.8855C 207.231,52.4988 206.388,51.9988 205.565,51.3855C 204.741,50.7722 203.996,50.0255 203.33,49.1455L 203.33,53.3055L 197.67,53.3055L 197.67,17.8955C 197.67,17.8555 197.67,17.6488 197.67,17.2755C 197.67,16.9022 197.66,16.4339 197.64,15.8705C 197.62,15.3072 197.593,14.6822 197.56,13.9955C 197.526,13.3089 197.48,12.6205 197.42,11.9305C 197.36,11.2405 197.276,10.5838 197.17,9.96048C 197.063,9.33719 196.94,8.80551 196.8,8.36551L 203.33,8.36551L 203.33,27.1155C 203.976,26.3022 204.731,25.5938 205.595,24.9905C 206.458,24.3872 207.348,23.8822 208.265,23.4755C 209.181,23.0689 210.088,22.7672 210.985,22.5705C 211.881,22.3738 212.693,22.2755 213.42,22.2755 Z M 213.23,49.0255C 214.796,49.0255 216.247,48.7905 217.58,48.3205C 218.913,47.8505 220.075,47.1621 221.065,46.2555C 222.055,45.3488 222.83,44.2289 223.39,42.8955C 223.95,41.5622 224.229,40.0222 224.229,38.2755C 224.229,36.7088 223.985,35.2538 223.495,33.9105C 223.005,32.5672 222.313,31.4122 221.42,30.4455C 220.526,29.4789 219.433,28.7188 218.14,28.1655C 216.846,27.6122 215.41,27.3355 213.83,27.3355C 212.496,27.3355 211.2,27.5955 209.94,28.1155C 208.68,28.6355 207.56,29.3338 206.58,30.2105C 205.6,31.0872 204.813,32.1089 204.22,33.2755C 203.626,34.4422 203.33,35.6588 203.33,36.9255L 203.33,39.7455C 203.33,41.0788 203.626,42.3122 204.22,43.4455C 204.813,44.5788 205.578,45.5572 206.515,46.3805C 207.451,47.2038 208.508,47.8505 209.685,48.3205C 210.861,48.7905 212.043,49.0255 213.23,49.0255 Z "/>
			<rect x="236.23" y="8.24551" fill="#FFFFFF" fill-opacity="1" stroke-width="0.2" stroke-linejoin="round" width="5.80981" height="45.06"/>
			<path fill="#FFFFFF" fill-opacity="1" stroke-width="0.2" stroke-linejoin="round" d="M 273.28,34.6155C 273.153,33.4889 272.85,32.4372 272.37,31.4605C 271.89,30.4839 271.265,29.6255 270.495,28.8855C 269.725,28.1455 268.818,27.5622 267.775,27.1355C 266.731,26.7088 265.577,26.4955 264.31,26.4955C 263.31,26.4955 262.268,26.6772 261.185,27.0405C 260.101,27.4038 259.106,27.9339 258.2,28.6305C 257.293,29.3272 256.526,30.1822 255.9,31.1955C 255.273,32.2088 254.92,33.3488 254.84,34.6155L 273.28,34.6155 Z M 277.81,46.6455C 276.077,49.2921 274.101,51.2455 271.885,52.5055C 269.668,53.7655 267.1,54.3955 264.18,54.3955C 261.747,54.3955 259.586,53.9638 257.7,53.1005C 255.813,52.2372 254.223,51.0655 252.93,49.5855C 251.636,48.1055 250.651,46.3755 249.975,44.3955C 249.298,42.4155 248.96,40.3122 248.96,38.0855C 248.96,35.8388 249.346,33.7038 250.12,31.6805C 250.893,29.6572 251.976,27.8855 253.37,26.3655C 254.763,24.8455 256.435,23.6422 258.385,22.7555C 260.335,21.8689 262.497,21.4255 264.87,21.4255C 266.83,21.4255 268.663,21.8072 270.37,22.5705C 272.077,23.3338 273.565,24.3755 274.835,25.6955C 276.105,27.0155 277.11,28.5572 277.85,30.3205C 278.59,32.0838 278.96,33.9655 278.96,35.9655C 278.96,36.4389 278.93,36.9738 278.87,37.5705C 278.81,38.1671 278.696,38.8288 278.53,39.5555L 254.46,39.5555C 254.48,40.8022 254.73,42.0038 255.21,43.1605C 255.69,44.3172 256.346,45.3438 257.18,46.2405C 258.013,47.1372 259.008,47.8572 260.165,48.4005C 261.321,48.9439 262.596,49.2155 263.99,49.2155C 264.823,49.2155 265.673,49.1155 266.54,48.9155C 267.406,48.7155 268.257,48.4022 269.09,47.9755C 269.923,47.5489 270.735,46.9972 271.525,46.3205C 272.315,45.6438 273.043,44.8355 273.71,43.8955L 277.81,46.6455 Z "/>
		</g>
		<g>
			<ellipse fill="none" stroke-width="3" stroke-linejoin="round" stroke="#FFFFFF" stroke-opacity="1" cx="44.745" cy="29.5782" rx="28.0782" ry="28.0782"/>
			<path fill="none" stroke-width="3" stroke-linejoin="round" stroke="#FFFFFF" stroke-opacity="1" d="M 62.4512,22.2643C 60.7253,23.9009 56.6729,22.4293 53.3994,18.9772C 50.1265,15.5252 48.8721,11.4002 50.5981,9.76358C 52.3242,8.12698 56.3767,9.59866 59.6499,13.0507C 62.9231,16.5027 64.1772,20.6277 62.4512,22.2643 Z "/>
			<path fill="#FFFFFF" fill-opacity="1" stroke-width="0.2" stroke-linejoin="round" d="M 31.1904,41.5367C 28.4331,41.5367 26.1978,43.7719 26.1978,46.5291C 26.1978,49.2863 28.4331,51.5215 31.1904,51.5215C 33.9475,51.5215 36.1826,49.2863 36.1826,46.5291C 36.1826,43.7719 33.9475,41.5367 31.1904,41.5367 Z M 28.2671,61.271C 26.804,53.7054 24.084,48.5629 21.7588,48.5629C 19.4338,48.5629 16.5393,53.7054 14.9678,61.271L 2.77368,61.271C 1.24194,61.271 0,60.0293 0,58.4974L 0,35.6126C 0,34.0807 1.24194,32.839 2.77368,32.839L 40.3774,32.839C 41.9092,32.839 43.1509,34.0807 43.1509,35.6126L 43.1509,58.4974C 43.1509,60.0293 41.9092,61.271 40.3774,61.271L 28.2671,61.271 Z M 11.9604,41.5369C 9.20313,41.5369 6.96777,43.7721 6.96777,46.5293C 6.96777,49.2865 9.20313,51.5218 11.9604,51.5218C 14.7175,51.5218 16.9526,49.2865 16.9526,46.5293C 16.9526,43.7721 14.7175,41.5369 11.9604,41.5369 Z "/>
		</g>
	</g>
</svg>
