<?xml version="1.0" encoding="utf-8"?>
<!DOCTYPE svg PUBLIC "-//W3C//DTD SVG 1.1//EN" "http://www.w3.org/Graphics/SVG/1.1/DTD/svg11.dtd">
<svg xmlns="http://www.w3.org/2000/svg" xmlns:xlink="http://www.w3.org/1999/xlink" version="1.1" baseProfile="full" width="33.5783" height="33.5783" viewBox="0 0 33.58 33.58" enable-background="new 0 0 33.58 33.58" xml:space="preserve">
	<path fill="#0096FF" fill-opacity="0.501961" stroke-width="2" stroke-linejoin="round" stroke="#0096FF" stroke-opacity="1" d="M 16.7891,0.999969C 25.5093,0.999969 32.5782,8.069 32.5782,16.7891C 32.5782,25.5092 25.5093,32.5783 16.7891,32.5783C 8.06897,32.5783 1,25.5092 1,16.7891C 1,8.069 8.06897,0.999969 16.7891,0.999969 Z "/>
	<g>
		<path fill="#FFFFFF" fill-opacity="1" stroke-width="0.2" stroke-linejoin="round" d="M 9.80127,18.0219C 9.50122,18.3218 9.08838,18.4718 8.56262,18.4718C 8.04065,18.4718 7.62964,18.3159 7.32971,18.0044C 7.02979,17.6928 6.87988,17.2876 6.87988,16.7891C 6.87988,16.2905 7.02979,15.8854 7.32971,15.5738C 7.62964,15.2622 8.04065,15.1064 8.56262,15.1064C 9.08838,15.1064 9.50024,15.2622 9.79834,15.5738C 10.0963,15.8854 10.2452,16.2905 10.2452,16.7891C 10.2452,17.2876 10.0973,17.6986 9.80127,18.0219 Z "/>
		<path fill="#FFFFFF" fill-opacity="1" stroke-width="0.2" stroke-linejoin="round" d="M 18.0278,18.0219C 17.7278,18.3218 17.3149,18.4718 16.7892,18.4718C 16.2672,18.4718 15.8562,18.3159 15.5563,18.0044C 15.2563,17.6928 15.1064,17.2876 15.1064,16.7891C 15.1064,16.2905 15.2563,15.8854 15.5563,15.5738C 15.8562,15.2622 16.2672,15.1064 16.7892,15.1064C 17.3149,15.1064 17.7268,15.2622 18.0249,15.5738C 18.3229,15.8854 18.4718,16.2905 18.4718,16.7891C 18.4718,17.2876 18.3239,17.6986 18.0278,18.0219 Z "/>
		<path fill="#FFFFFF" fill-opacity="1" stroke-width="0.2" stroke-linejoin="round" d="M 26.2545,18.0219C 25.9546,18.3218 25.5416,18.4718 25.0159,18.4718C 24.4939,18.4718 24.083,18.3159 23.783,18.0044C 23.483,17.6928 23.3331,17.2876 23.3331,16.7891C 23.3331,16.2905 23.483,15.8854 23.783,15.5738C 24.083,15.2622 24.4939,15.1064 25.0159,15.1064C 25.5416,15.1064 25.9536,15.2622 26.2516,15.5738C 26.5496,15.8854 26.6985,16.2905 26.6985,16.7891C 26.6985,17.2876 26.5505,17.6986 26.2545,18.0219 Z "/>
	</g>
</svg>
