<?xml version="1.0" encoding="utf-8"?>
<!DOCTYPE svg PUBLIC "-//W3C//DTD SVG 1.1//EN" "http://www.w3.org/Graphics/SVG/1.1/DTD/svg11.dtd">
<svg xmlns="http://www.w3.org/2000/svg" xmlns:xlink="http://www.w3.org/1999/xlink" version="1.1" baseProfile="full" width="63.842" height="46.2168" viewBox="0 0 63.84 46.22" enable-background="new 0 0 63.84 46.22" xml:space="preserve">
	<g>
		<path fill="none" stroke-width="3" stroke-linejoin="round" stroke="#FFFFFF" stroke-opacity="1" d="M 4.70752,1.50006L 19.1284,1.50006C 20.8999,1.50006 22.3359,2.9361 22.3359,4.7077L 22.3359,41.5092C 22.3359,43.2807 20.8999,44.7169 19.1284,44.7169L 4.70752,44.7169C 2.93604,44.7169 1.5,43.2807 1.5,41.5092L 1.5,4.7077C 1.5,2.9361 2.93604,1.50006 4.70752,1.50006 Z "/>
		<path fill="none" stroke-width="3" stroke-linejoin="round" stroke="#FFFFFF" stroke-opacity="1" d="M 44.7075,1.50006L 59.1284,1.50006C 60.8999,1.50006 62.3359,2.9361 62.3359,4.7077L 62.3359,41.5092C 62.3359,43.2807 60.8999,44.7169 59.1284,44.7169L 44.7075,44.7169C 42.936,44.7169 41.5,43.2807 41.5,41.5092L 41.5,4.7077C 41.5,2.9361 42.936,1.50006 44.7075,1.50006 Z "/>
		<path fill="none" stroke-width="3" stroke-linecap="round" stroke-linejoin="round" stroke="#0096FF" stroke-opacity="1" d="M 24.6426,31.0928L 14.0996,22.283L 49.9607,22.283L 39.6973,13.7067"/>
	</g>
	<rect x="38.0161" y="27.803" fill="#0096FF" fill-opacity="1" stroke-width="0.2" stroke-linejoin="round" width="25.8259" height="11.2797"/>
	<g>
		<path fill="#FFFFFF" fill-opacity="1" stroke-width="0.32" stroke-linejoin="round" d="M 41.1587,35.6263L 41.1587,34.7773C 41.5757,35.095 42.0344,35.254 42.5349,35.254C 43.2061,35.254 43.5417,35.0419 43.5417,34.618C 43.5417,34.4919 43.5129,34.3848 43.4553,34.2969C 43.3977,34.2092 43.3198,34.1312 43.2217,34.0632C 43.1233,33.9952 43.0076,33.934 42.8745,33.8799C 42.7415,33.8259 42.5986,33.7695 42.4456,33.7109C 42.2341,33.6285 42.0479,33.5449 41.8872,33.4599C 41.7261,33.3751 41.5918,33.2792 41.4841,33.1725C 41.3765,33.0657 41.2954,32.9446 41.2407,32.8091C 41.186,32.6735 41.1587,32.515 41.1587,32.3332C 41.1587,32.1108 41.2104,31.9142 41.3137,31.7435C 41.417,31.5727 41.5544,31.4295 41.7261,31.3138C 41.8979,31.1981 42.0942,31.111 42.3145,31.0524C 42.5349,30.9938 42.7622,30.9645 42.9966,30.9645C 43.4126,30.9645 43.7852,31.0405 44.1138,31.1924L 44.1138,32.013C 43.7563,31.7589 43.3452,31.6318 42.8804,31.6318C 42.7344,31.6318 42.603,31.6472 42.4858,31.6779C 42.3687,31.7087 42.2681,31.7521 42.1841,31.8083C 42.1003,31.8643 42.0356,31.9313 41.9897,32.0093C 41.9441,32.0872 41.9214,32.1734 41.9214,32.2678C 41.9214,32.3908 41.9438,32.4941 41.989,32.5775C 42.0342,32.6609 42.1006,32.7349 42.188,32.7994C 42.2754,32.864 42.3816,32.9225 42.5066,32.9752C 42.6318,33.0278 42.7737,33.0849 42.9326,33.1464C 43.145,33.2269 43.3354,33.3095 43.5039,33.3945C 43.6721,33.4793 43.8154,33.5749 43.9341,33.6811C 44.0527,33.7874 44.144,33.9097 44.2083,34.0483C 44.2722,34.1868 44.3042,34.3519 44.3042,34.5435C 44.3042,34.7778 44.2527,34.9814 44.1494,35.1541C 44.0461,35.3268 43.908,35.4702 43.7346,35.5838C 43.5613,35.6974 43.3621,35.7822 43.1367,35.8377C 42.9111,35.8934 42.6748,35.9212 42.4277,35.9212C 41.9402,35.9212 41.5171,35.8228 41.1587,35.6263 Z "/>
		<path fill="#FFFFFF" fill-opacity="1" stroke-width="0.32" stroke-linejoin="round" d="M 47.4692,35.9212C 46.7683,35.9212 46.2085,35.7 45.79,35.2576C 45.3716,34.8152 45.1624,34.2287 45.1624,33.498C 45.1624,32.7026 45.3799,32.0816 45.8154,31.6347C 46.2507,31.1879 46.8394,30.9645 47.5811,30.9645C 48.2881,30.9645 48.8401,31.1817 49.2373,31.6161C 49.6343,32.0505 49.833,32.6535 49.833,33.425C 49.833,34.1796 49.6191,34.7842 49.1909,35.239C 48.7632,35.6938 48.1892,35.9212 47.4692,35.9212 Z M 47.5259,31.6318C 47.0325,31.6318 46.6421,31.7949 46.3552,32.121C 46.0684,32.4472 45.9248,32.8968 45.9248,33.4697C 45.9248,34.0217 46.0701,34.4571 46.3604,34.7758C 46.6509,35.0945 47.0396,35.254 47.5259,35.254C 48.0225,35.254 48.4038,35.0977 48.6704,34.7855C 48.937,34.4732 49.0703,34.0286 49.0703,33.4517C 49.0703,32.869 48.937,32.4199 48.6704,32.1047C 48.4038,31.7894 48.0225,31.6318 47.5259,31.6318 Z "/>
		<path fill="#FFFFFF" fill-opacity="1" stroke-width="0.32" stroke-linejoin="round" d="M 53.0933,35.9212C 52.3921,35.9212 51.8325,35.7 51.4141,35.2576C 50.9954,34.8152 50.7861,34.2287 50.7861,33.498C 50.7861,32.7026 51.0039,32.0816 51.4392,31.6347C 51.8745,31.1879 52.4631,30.9645 53.2048,30.9645C 53.9119,30.9645 54.4639,31.1817 54.8611,31.6161C 55.2583,32.0505 55.4568,32.6535 55.4568,33.425C 55.4568,34.1796 55.2429,34.7842 54.8149,35.239C 54.387,35.6938 53.813,35.9212 53.0933,35.9212 Z M 53.1499,31.6318C 52.6563,31.6318 52.2661,31.7949 51.979,32.121C 51.6921,32.4472 51.5488,32.8968 51.5488,33.4697C 51.5488,34.0217 51.6938,34.4571 51.9844,34.7758C 52.2749,35.0945 52.6633,35.254 53.1499,35.254C 53.6462,35.254 54.0278,35.0977 54.2944,34.7855C 54.561,34.4732 54.6943,34.0286 54.6943,33.4517C 54.6943,32.869 54.561,32.4199 54.2944,32.1047C 54.0278,31.7894 53.6462,31.6318 53.1499,31.6318 Z "/>
		<path fill="#FFFFFF" fill-opacity="1" stroke-width="0.32" stroke-linejoin="round" d="M 60.6995,35.8259L 59.9368,35.8259L 59.9368,33.1346C 59.9368,32.1326 59.5601,31.6318 58.8064,31.6318C 58.4172,31.6318 58.0952,31.7737 57.8406,32.0577C 57.5859,32.3417 57.4585,32.7006 57.4585,33.1346L 57.4585,35.8259L 56.6958,35.8259L 56.6958,31.0599L 57.4585,31.0599L 57.4585,31.8924L 57.478,31.8924C 57.8433,31.2739 58.3721,30.9645 59.064,30.9645C 59.5933,30.9645 59.998,31.1323 60.2786,31.468C 60.5591,31.8035 60.6995,32.288 60.6995,32.9216L 60.6995,35.8259 Z "/>
	</g>
</svg>
